<?xml version="1.0" standalone="no"?>
<!DOCTYPE svg PUBLIC "-//W3C//DTD SVG 20010904//EN"
 "http://www.w3.org/TR/2001/REC-SVG-20010904/DTD/svg10.dtd">
<svg version="1.0" xmlns="http://www.w3.org/2000/svg"
 width="23622.000000pt" height="4722.000000pt" viewBox="0 0 23622.000000 4722.000000"
 preserveAspectRatio="xMidYMid meet">

<g transform="translate(0.000000,4722.000000) scale(0.100000,-0.100000)"
fill="#000000" stroke="none">
<path d="M7 47213 c-9 -9 -7 -25201 2 -25233 8 -27 28 -29 106 -10 22 6 96 17
165 25 69 8 163 21 210 29 47 8 148 22 225 31 77 9 156 20 175 25 19 5 98 14
175 20 77 7 176 18 220 26 44 8 125 19 180 24 244 24 297 29 410 44 100 13
385 40 525 50 19 1 60 6 90 10 30 4 156 14 280 23 124 8 261 19 305 23 44 5
190 15 325 24 135 8 283 17 330 21 47 4 127 8 178 10 52 2 108 9 126 15 18 6
69 10 112 10 43 0 232 7 419 16 187 9 405 18 485 20 80 2 188 6 240 9 98 6
639 20 1160 29 162 3 570 10 905 16 785 14 2170 15 2485 2 636 -27 746 -32
900 -42 225 -15 223 -15 500 -38 135 -12 263 -24 285 -27 22 -3 67 -10 100
-16 33 -5 115 -14 182 -19 67 -5 178 -19 245 -30 68 -11 173 -24 234 -30 61
-5 124 -15 140 -20 16 -5 94 -18 174 -29 133 -18 235 -35 470 -77 47 -9 126
-22 175 -30 50 -9 137 -26 195 -39 58 -13 125 -26 150 -30 43 -6 201 -40 325
-70 33 -8 98 -22 145 -31 47 -9 121 -27 165 -39 44 -13 103 -27 130 -31 28 -3
71 -15 96 -24 25 -10 67 -21 95 -25 27 -4 83 -18 124 -30 41 -13 91 -26 110
-30 19 -3 69 -17 110 -30 41 -12 102 -30 135 -38 169 -44 243 -65 261 -74 10
-6 52 -18 93 -27 40 -9 87 -24 103 -32 15 -8 54 -20 85 -25 32 -6 73 -19 93
-29 19 -9 59 -23 88 -29 29 -6 69 -19 90 -30 20 -10 62 -24 92 -30 30 -7 65
-18 77 -26 12 -9 46 -20 75 -26 29 -6 69 -20 88 -29 20 -10 54 -21 75 -25 22
-4 63 -18 90 -30 28 -13 77 -32 110 -43 33 -11 83 -27 110 -37 28 -9 74 -27
103 -41 29 -13 60 -24 70 -24 9 0 35 -9 56 -21 21 -11 64 -29 95 -39 70 -22
199 -74 347 -139 39 -17 77 -31 85 -31 8 0 32 -11 54 -25 22 -13 47 -25 56
-25 9 0 41 -14 72 -30 31 -17 62 -30 69 -30 7 0 35 -11 63 -24 103 -50 181
-84 217 -95 20 -7 42 -18 48 -26 6 -7 26 -17 43 -21 18 -3 57 -19 87 -35 30
-15 270 -135 533 -266 462 -230 528 -264 647 -331 30 -17 78 -42 105 -56 28
-15 73 -39 100 -56 28 -16 68 -39 90 -50 22 -12 65 -37 95 -55 30 -19 78 -46
107 -61 29 -14 57 -32 64 -40 6 -8 17 -14 23 -14 6 -1 43 -21 81 -45 39 -25
90 -56 115 -70 25 -14 65 -39 90 -55 25 -16 63 -39 85 -51 22 -12 51 -29 65
-39 43 -29 80 -54 130 -85 116 -73 184 -118 354 -231 99 -66 217 -146 261
-177 44 -31 94 -66 110 -77 209 -146 227 -160 540 -393 242 -182 413 -314 435
-337 3 -3 34 -28 70 -55 36 -28 118 -95 184 -150 65 -55 141 -118 168 -140 28
-22 112 -94 187 -160 75 -65 147 -128 160 -140 14 -11 74 -65 135 -120 60 -55
143 -129 185 -164 100 -85 1085 -1070 1187 -1187 72 -83 191 -217 283 -319 93
-102 248 -280 266 -304 10 -14 69 -85 130 -157 60 -72 121 -146 135 -164 23
-30 207 -262 280 -352 16 -20 66 -85 110 -145 44 -59 93 -124 108 -143 15 -19
42 -55 60 -80 18 -25 59 -80 90 -122 31 -43 67 -92 80 -110 25 -37 92 -130
120 -167 48 -66 157 -223 222 -322 77 -116 149 -223 170 -254 53 -77 71 -105
114 -176 26 -42 53 -82 60 -88 8 -7 20 -26 27 -44 7 -18 22 -44 33 -58 12 -15
28 -39 37 -55 26 -45 177 -293 197 -322 10 -15 24 -38 30 -52 7 -14 28 -50 47
-80 19 -30 41 -68 49 -85 8 -16 23 -41 34 -55 11 -14 27 -41 36 -60 9 -19 32
-62 50 -95 19 -33 43 -76 54 -95 10 -19 40 -73 67 -119 26 -47 51 -94 57 -105
5 -12 25 -48 43 -81 18 -33 59 -109 90 -170 31 -60 60 -117 66 -125 5 -8 16
-31 25 -50 9 -19 29 -57 44 -85 35 -60 170 -332 170 -342 0 -10 71 -155 90
-183 10 -14 23 -42 30 -63 6 -21 33 -80 59 -131 27 -51 51 -106 55 -121 4 -16
16 -41 27 -56 10 -15 19 -34 19 -42 0 -8 13 -41 30 -72 16 -31 30 -62 30 -69
0 -6 13 -38 29 -71 56 -115 91 -194 91 -207 0 -7 14 -40 30 -73 17 -33 30 -66
30 -73 0 -8 11 -35 24 -61 32 -63 100 -233 132 -331 8 -25 24 -63 34 -85 10
-22 28 -65 39 -95 10 -30 33 -93 50 -140 48 -129 91 -249 111 -312 11 -32 26
-70 34 -85 7 -16 21 -57 30 -92 9 -36 20 -69 25 -75 5 -6 17 -40 26 -76 9 -35
23 -76 30 -91 8 -14 19 -48 25 -75 7 -27 22 -78 35 -114 12 -36 34 -103 48
-150 14 -47 38 -123 52 -170 15 -47 34 -112 41 -145 8 -33 23 -85 34 -115 10
-30 25 -82 33 -115 19 -77 42 -159 72 -260 27 -95 60 -227 85 -345 10 -47 24
-98 30 -115 7 -16 18 -61 25 -100 7 -38 22 -108 34 -155 38 -157 80 -354 91
-429 6 -40 15 -82 21 -93 5 -10 16 -67 24 -126 8 -59 21 -125 28 -147 8 -22
18 -70 22 -105 4 -36 16 -110 26 -165 11 -55 28 -165 39 -245 11 -80 24 -163
30 -185 6 -22 19 -112 30 -200 11 -88 24 -187 29 -220 6 -33 15 -118 21 -190
10 -123 19 -196 41 -345 5 -36 17 -171 26 -300 8 -129 19 -273 24 -320 20
-200 28 -432 34 -1025 8 -690 -5 -1243 -33 -1525 -6 -52 -17 -198 -26 -325 -8
-126 -20 -260 -26 -298 -41 -268 -42 -285 -20 -297 20 -11 9707 -14 9748 -4
l22 6 0 657 c0 382 4 680 10 712 5 30 12 191 15 359 3 168 9 355 14 415 27
317 32 381 32 395 0 37 20 329 25 365 19 139 25 193 34 305 13 152 26 265 40
345 6 33 15 112 20 175 9 110 16 162 38 260 6 25 14 83 17 130 4 47 16 130 26
185 11 55 27 154 35 220 9 66 24 153 35 194 10 41 19 92 19 114 0 22 9 77 20
123 11 46 27 125 34 176 8 51 23 129 34 173 11 44 23 105 27 135 4 30 16 82
26 115 9 33 25 101 33 150 8 50 22 109 30 132 8 23 17 63 21 90 4 26 17 89 30
138 39 150 65 257 76 310 6 28 20 77 31 110 10 33 26 92 34 130 8 39 21 87 29
109 9 21 22 69 30 106 8 37 23 90 35 119 11 28 20 63 20 77 0 13 7 41 16 62 9
20 27 75 39 122 13 47 33 111 44 142 12 32 21 65 21 73 0 9 11 41 25 71 14 30
25 64 25 75 0 11 9 45 21 77 12 31 29 84 39 117 11 33 34 103 53 155 19 52 40
111 47 130 7 19 21 58 32 85 11 28 25 68 30 90 5 22 20 63 33 90 12 28 30 73
40 100 9 28 30 86 47 130 16 44 39 104 49 134 11 29 27 63 35 75 8 13 21 45
29 72 8 27 24 67 35 89 11 21 20 45 20 51 0 7 13 41 30 76 16 34 30 70 30 79
0 9 9 28 21 43 11 14 25 43 30 64 6 20 23 64 39 97 15 33 40 87 55 120 14 33
37 80 50 105 12 25 26 59 30 77 3 17 13 37 20 43 8 7 24 37 35 68 12 32 88
189 168 350 81 161 155 309 165 330 10 20 22 44 27 52 6 8 21 35 34 60 13 25
38 72 56 105 18 33 46 85 62 115 16 30 42 76 56 101 15 26 51 90 80 143 29 52
58 98 63 102 6 3 21 29 35 57 13 29 37 72 54 97 16 25 38 61 48 80 17 35 25
47 91 150 19 30 44 71 56 90 12 19 47 73 77 120 30 47 83 128 116 180 34 52
84 127 112 165 28 39 70 99 93 134 23 35 56 82 72 106 17 23 39 55 50 71 11
16 42 59 70 97 27 37 66 90 85 118 38 55 97 132 253 330 104 133 192 244 202
255 5 6 42 51 80 99 39 48 126 150 195 227 69 76 138 156 153 176 131 172
1097 1138 1246 1246 16 12 73 61 127 110 55 49 115 101 134 115 20 14 103 83
185 152 127 106 267 218 382 304 280 210 347 259 455 332 18 12 65 45 103 73
39 28 106 74 149 103 43 29 97 64 120 79 23 15 57 36 76 48 19 11 46 28 60 38
14 11 43 30 65 44 22 14 72 45 110 70 39 25 85 53 104 63 19 9 52 30 74 46 22
16 46 29 52 29 7 0 18 6 24 14 7 8 26 21 44 30 18 9 82 46 142 81 61 36 133
76 160 89 28 13 56 31 63 39 7 8 25 18 40 22 15 4 34 13 42 20 8 8 65 39 125
71 146 75 197 102 215 113 8 5 64 33 123 62 59 28 110 56 113 60 3 5 13 9 23
9 10 0 34 11 54 24 19 13 46 27 58 31 13 4 69 29 124 56 55 26 119 55 143 63
24 9 56 25 72 36 15 11 36 20 45 20 9 0 38 11 64 24 83 44 242 113 338 146 28
10 62 25 75 33 12 9 43 21 68 27 25 6 54 18 66 25 11 7 43 20 70 28 27 8 65
24 84 36 19 11 44 21 56 21 11 0 43 11 70 25 27 14 65 28 84 31 19 4 53 16 75
27 22 11 60 26 85 33 70 20 218 72 248 88 15 7 52 19 82 26 30 6 80 23 110 38
54 26 55 28 54 68 0 23 -11 65 -23 94 -19 44 -24 77 -28 189 -2 75 -10 154
-17 176 -9 29 -10 65 -5 130 5 50 13 149 17 220 9 131 27 210 95 430 17 55 41
118 53 140 12 22 25 52 28 68 6 27 108 218 153 287 59 91 117 167 256 334 72
86 212 217 317 296 18 14 62 48 97 76 62 49 223 154 288 186 17 8 59 32 95 53
36 20 81 43 100 50 20 7 53 22 75 34 22 11 46 21 54 21 8 0 33 11 55 24 23 13
66 29 96 36 30 7 65 19 77 26 13 8 54 21 93 29 39 8 80 21 93 29 12 8 58 19
102 25 45 5 94 15 110 21 57 22 191 40 296 40 60 0 124 6 145 13 74 24 713 -9
811 -42 32 -11 85 -23 118 -27 33 -3 90 -17 127 -30 38 -12 89 -26 115 -30 27
-3 62 -14 78 -24 17 -10 46 -21 65 -25 19 -4 62 -20 95 -36 33 -16 66 -29 73
-29 22 0 339 -159 377 -190 20 -16 46 -32 58 -36 12 -4 62 -37 112 -73 49 -37
106 -78 125 -91 49 -33 108 -86 234 -209 173 -168 251 -267 423 -531 12 -19
28 -51 34 -70 7 -19 18 -42 25 -51 8 -8 19 -31 26 -50 6 -19 22 -50 35 -69 12
-19 23 -41 23 -50 0 -8 11 -38 24 -67 14 -29 28 -73 32 -99 4 -27 15 -67 26
-90 10 -24 24 -86 32 -139 8 -62 19 -102 30 -113 18 -18 15 -18 1016 -40 982
-22 1337 -33 1377 -44 23 -5 88 -11 145 -13 210 -5 692 -35 903 -56 50 -5 171
-13 270 -18 99 -6 223 -15 275 -22 103 -12 121 -14 315 -29 144 -11 308 -28
400 -41 33 -5 121 -13 195 -19 74 -6 186 -20 249 -31 63 -11 173 -24 245 -30
72 -5 174 -18 226 -29 52 -10 133 -22 180 -25 89 -7 246 -31 260 -40 5 -3 68
-12 142 -19 73 -8 176 -24 228 -35 52 -11 112 -21 132 -21 20 0 87 -11 150
-24 62 -14 151 -30 198 -36 47 -6 119 -20 160 -30 41 -10 107 -22 145 -26 39
-4 94 -15 124 -26 30 -10 94 -23 141 -28 48 -5 107 -17 131 -26 24 -8 86 -22
138 -30 52 -8 124 -23 160 -33 36 -11 102 -26 146 -35 102 -20 191 -41 285
-68 41 -12 104 -26 140 -33 36 -6 94 -21 130 -33 36 -11 86 -23 111 -27 25 -3
77 -17 115 -30 38 -14 79 -25 91 -25 12 0 46 -9 75 -21 29 -11 86 -27 127 -35
40 -8 93 -23 116 -33 23 -10 62 -22 86 -26 24 -4 57 -14 72 -22 16 -8 60 -21
99 -29 39 -8 87 -23 107 -33 20 -10 56 -22 81 -26 25 -4 65 -16 90 -27 25 -11
71 -26 103 -34 32 -8 74 -22 95 -33 20 -10 55 -22 77 -26 22 -4 63 -18 91 -31
28 -13 58 -24 66 -24 9 0 40 -11 70 -25 29 -14 62 -25 73 -25 11 0 38 -9 59
-21 21 -11 68 -30 104 -41 36 -11 82 -29 101 -39 20 -10 43 -19 51 -19 8 0 36
-11 62 -25 26 -14 56 -25 66 -25 11 0 44 -13 75 -30 31 -16 64 -30 73 -30 10
0 36 -11 58 -24 23 -13 55 -26 71 -30 17 -3 54 -17 83 -31 159 -76 315 -145
326 -145 4 0 24 -11 44 -25 20 -14 43 -25 51 -25 14 0 468 -225 576 -286 33
-19 83 -45 110 -59 104 -53 272 -150 565 -327 19 -11 73 -46 120 -76 47 -30
101 -65 120 -77 68 -43 208 -138 285 -195 22 -16 63 -45 90 -63 101 -69 363
-271 525 -405 289 -240 406 -347 690 -632 135 -135 294 -301 354 -370 60 -69
115 -132 123 -140 7 -8 29 -35 49 -60 20 -25 57 -69 82 -98 25 -29 77 -95 115
-145 39 -51 91 -119 116 -152 26 -33 53 -70 61 -82 8 -12 47 -66 85 -120 163
-227 485 -734 485 -762 0 -5 10 -22 23 -38 12 -15 30 -44 40 -63 10 -19 33
-62 52 -95 19 -33 39 -71 45 -85 5 -14 15 -34 22 -45 21 -35 69 -127 115 -220
24 -49 55 -111 69 -136 13 -26 24 -54 24 -62 0 -8 11 -31 25 -51 14 -20 28
-49 31 -64 4 -15 20 -51 35 -81 16 -30 29 -59 29 -66 0 -7 13 -39 30 -70 16
-31 30 -63 30 -71 0 -8 7 -26 16 -39 8 -13 26 -53 40 -89 13 -36 35 -95 48
-132 14 -36 29 -70 34 -77 5 -7 16 -34 25 -62 8 -27 24 -72 35 -100 11 -27 25
-66 32 -85 7 -19 28 -78 47 -130 19 -52 43 -126 54 -164 11 -38 26 -80 34 -95
7 -15 16 -45 20 -66 4 -22 18 -65 30 -95 13 -30 26 -75 30 -100 4 -25 18 -71
31 -102 13 -32 24 -66 24 -77 0 -11 13 -62 29 -113 34 -112 56 -196 81 -303
10 -44 25 -98 33 -121 8 -22 20 -73 26 -113 6 -40 20 -99 31 -130 10 -31 22
-81 25 -111 4 -30 17 -93 30 -140 13 -47 27 -112 30 -145 4 -33 18 -100 30
-150 13 -49 26 -119 29 -155 4 -36 16 -96 26 -135 10 -38 22 -99 26 -135 4
-36 12 -94 19 -130 28 -137 35 -179 50 -295 8 -66 20 -142 25 -170 6 -27 15
-99 20 -160 6 -60 20 -162 31 -225 11 -63 22 -158 25 -210 3 -52 9 -120 14
-150 26 -161 32 -211 46 -395 9 -110 20 -234 24 -275 22 -200 29 -286 35 -420
3 -80 11 -199 16 -265 5 -66 14 -172 19 -235 5 -63 12 -227 15 -365 3 -137 8
-263 11 -280 22 -119 44 -914 53 -1960 9 -1041 10 -1203 4 -2307 l-4 -687 23
-6 c13 -3 6940 -4 15394 -3 14187 3 15373 4 15390 19 11 9 53 33 94 54 41 20
86 43 100 51 14 8 39 21 55 28 47 20 57 25 110 57 28 16 77 42 110 59 33 16
67 34 75 39 8 6 35 19 60 30 25 11 52 25 60 30 37 22 138 69 164 75 17 4 41
15 55 25 14 10 41 23 59 29 18 6 45 20 60 30 15 11 38 23 52 27 14 4 42 19 62
31 21 13 43 24 50 24 7 0 69 27 138 61 132 64 190 91 280 132 30 14 89 41 131
61 41 20 81 36 87 36 7 0 33 11 59 25 73 38 179 85 189 85 5 0 36 13 69 29 33
16 94 44 135 61 145 61 196 83 255 111 33 16 69 29 80 29 11 0 36 10 55 21 19
12 57 30 85 39 80 28 156 59 209 86 28 13 59 24 70 24 12 0 35 9 53 19 17 11
54 26 81 34 27 8 67 24 90 36 23 12 47 21 55 21 7 0 36 11 62 25 27 13 63 27
79 31 17 3 49 14 71 24 39 18 92 38 229 86 38 13 74 28 81 34 6 5 36 16 67 24
30 8 73 23 94 34 22 10 57 22 79 26 22 4 54 15 71 25 16 10 55 24 85 31 30 7
70 21 89 30 19 10 55 23 80 30 25 6 55 18 66 25 12 8 53 21 90 30 38 9 79 23
91 31 13 8 47 19 75 24 29 6 69 19 89 30 21 10 55 22 76 26 21 3 63 17 93 29
30 13 73 26 95 30 22 4 54 16 71 26 18 11 58 24 90 30 33 5 84 20 114 33 30
13 75 27 100 31 25 4 61 15 80 25 20 10 54 22 75 26 22 4 67 17 100 29 33 13
80 26 105 30 25 4 61 15 80 25 20 10 54 21 75 25 50 8 104 23 130 36 19 9 89
29 225 65 36 9 92 25 125 36 33 11 83 24 110 30 28 5 77 19 110 30 33 11 83
24 110 29 28 5 77 18 110 29 32 11 88 25 124 31 35 5 85 19 110 29 25 11 75
24 111 30 36 6 88 19 115 29 28 11 83 24 123 30 41 6 88 18 106 25 18 8 66 19
107 26 40 7 97 21 126 31 29 10 74 21 100 24 26 4 82 17 123 30 41 12 104 26
140 30 36 4 92 16 125 27 33 10 93 23 134 29 40 6 102 19 137 30 34 11 100 24
145 30 45 5 107 19 138 29 31 10 97 23 146 29 50 5 107 17 127 25 21 9 80 20
131 26 51 5 113 17 137 25 25 9 95 23 155 31 61 8 146 23 190 33 44 11 109 22
145 26 36 3 101 15 145 25 44 11 123 24 175 30 52 5 124 16 160 24 140 31 173
36 215 36 24 0 99 11 167 24 68 13 161 27 208 31 47 4 130 16 185 27 55 11
145 24 200 28 55 5 129 14 165 19 225 35 271 41 323 41 32 0 127 11 210 24 84
14 235 30 337 36 102 7 192 16 200 20 23 12 71 18 255 30 156 10 212 15 465
41 47 5 159 11 250 14 91 3 189 10 219 16 30 5 82 9 116 9 34 0 84 4 111 9 27
5 189 14 359 21 171 6 432 16 580 21 865 33 1632 40 2260 21 484 -15 1128 -39
1240 -47 55 -4 125 -8 155 -10 81 -4 300 -23 335 -29 17 -3 95 -8 175 -10 180
-7 271 -14 335 -27 28 -5 147 -16 265 -24 241 -17 267 -20 348 -34 31 -6 137
-18 234 -26 97 -8 229 -24 292 -35 63 -11 143 -20 178 -20 35 0 104 -7 153
-16 169 -28 200 -33 285 -39 47 -3 139 -17 205 -30 66 -13 156 -27 200 -30 44
-4 125 -16 180 -27 55 -10 147 -25 205 -33 58 -8 134 -21 170 -30 36 -8 97
-18 135 -21 39 -3 106 -14 150 -24 44 -10 118 -24 165 -30 47 -6 130 -22 185
-35 55 -13 130 -26 166 -29 37 -4 93 -15 125 -26 33 -12 101 -25 152 -30 51
-6 108 -17 128 -25 20 -8 75 -19 122 -25 48 -6 123 -22 168 -36 44 -13 92 -24
106 -24 14 0 70 -11 124 -25 55 -14 128 -30 164 -35 36 -6 92 -19 125 -30 33
-10 84 -22 114 -25 30 -4 86 -18 124 -31 39 -13 86 -24 104 -24 19 0 67 -11
106 -24 40 -13 102 -29 139 -35 36 -6 86 -18 110 -27 23 -8 72 -21 108 -28 61
-12 133 -31 295 -77 39 -11 99 -27 136 -34 36 -8 90 -23 120 -34 29 -11 82
-25 116 -30 34 -5 72 -16 85 -24 13 -8 43 -18 68 -22 25 -4 85 -20 134 -36 49
-16 97 -29 108 -29 10 0 45 -11 78 -25 33 -14 70 -25 82 -25 13 0 64 -13 113
-29 160 -53 279 -89 333 -101 28 -7 54 -16 57 -20 3 -5 31 -14 63 -20 31 -7
73 -20 93 -30 19 -10 64 -24 100 -30 35 -6 78 -20 94 -30 17 -10 54 -23 83
-29 29 -6 67 -18 85 -27 17 -9 58 -23 90 -30 31 -8 74 -22 95 -33 20 -10 57
-21 82 -25 24 -4 58 -15 75 -26 16 -10 48 -21 70 -25 22 -4 65 -18 95 -30 30
-13 75 -30 100 -38 92 -31 146 -50 195 -69 28 -11 75 -27 105 -35 30 -8 69
-23 85 -33 17 -10 48 -21 70 -25 22 -4 56 -15 75 -26 34 -18 87 -38 215 -80
33 -11 82 -31 109 -44 28 -14 57 -25 65 -25 9 0 39 -12 66 -25 28 -14 57 -25
65 -25 8 0 42 -14 75 -30 33 -16 68 -30 78 -30 10 0 40 -11 67 -25 27 -14 56
-25 63 -25 8 0 38 -13 68 -29 30 -15 69 -32 88 -36 19 -4 54 -18 79 -31 25
-13 52 -24 60 -24 8 0 29 -9 46 -19 17 -11 55 -26 85 -35 30 -9 61 -22 70 -30
9 -7 34 -19 56 -25 38 -12 61 -21 206 -90 36 -17 75 -31 85 -31 11 0 36 -11
56 -25 20 -14 43 -25 51 -25 8 0 34 -11 58 -23 24 -13 62 -30 84 -37 22 -7 47
-18 55 -25 8 -7 37 -20 64 -29 27 -9 61 -25 75 -35 14 -10 42 -22 61 -26 19
-4 47 -16 62 -26 15 -11 45 -26 68 -34 22 -8 53 -21 68 -29 15 -8 56 -28 92
-44 154 -71 260 -124 265 -131 2 -5 22 -12 42 -16 21 -4 53 -16 71 -27 19 -11
97 -52 175 -90 78 -38 149 -73 157 -78 8 -5 58 -30 110 -55 52 -25 104 -51
115 -57 11 -7 34 -18 50 -25 17 -8 41 -21 55 -29 14 -8 41 -22 60 -30 19 -8
44 -20 55 -26 30 -18 106 -59 240 -130 l120 -63 11600 -3 c6380 -1 11610 0
11623 3 28 7 29 36 2 136 -10 41 -24 119 -30 174 -6 55 -17 129 -25 165 -17
77 -32 178 -40 275 -3 39 -14 113 -25 165 -10 52 -21 136 -25 185 -5 90 -18
187 -35 280 -6 28 -17 138 -25 245 -9 107 -20 220 -26 250 -14 83 -27 248 -32
411 -2 81 -8 152 -12 159 -4 7 -9 42 -11 79 -1 36 -8 120 -14 186 -5 66 -13
230 -15 365 -3 135 -8 259 -11 275 -29 151 -50 1416 -35 2128 11 558 24 911
35 972 3 17 8 143 11 280 8 311 12 392 20 413 9 22 24 201 30 367 6 140 21
314 35 410 5 33 16 143 25 245 8 102 19 205 24 230 19 86 30 176 35 275 3 55
15 145 25 200 11 55 23 136 26 180 7 92 20 182 40 275 8 36 19 110 25 165 7
55 20 131 31 170 10 38 19 86 19 106 0 46 30 219 41 241 5 10 14 62 19 115 5
54 16 116 25 137 9 21 23 86 30 145 8 59 21 127 30 151 9 25 20 79 26 120 6
41 21 110 35 153 13 43 24 96 24 117 0 22 11 69 24 105 14 35 28 93 32 127 4
35 15 86 25 113 11 28 24 79 30 115 5 36 21 99 33 140 22 70 33 108 73 265 8
33 25 92 38 130 12 39 26 90 30 115 4 25 16 64 27 88 10 23 24 68 29 100 6 31
17 68 24 82 7 14 21 55 30 90 9 36 24 88 34 115 33 91 62 179 76 230 7 28 22
70 33 95 11 25 24 63 28 85 3 22 15 56 24 75 10 20 25 61 34 91 9 31 25 73 36
94 11 22 20 48 20 58 0 10 14 49 30 87 17 38 30 76 30 85 0 9 11 35 24 58 13
23 27 58 31 77 4 19 18 53 31 76 13 22 24 48 24 56 0 9 13 45 30 80 16 34 30
72 30 83 0 11 12 38 25 60 14 22 25 46 25 54 0 8 11 37 25 65 43 90 95 213 95
225 0 7 11 29 25 49 14 20 25 43 25 50 0 8 11 35 24 61 48 91 96 198 96 213 0
9 7 21 14 28 8 6 23 33 33 58 9 26 28 62 40 81 13 19 23 40 23 48 0 8 9 28 20
44 12 15 26 43 32 61 6 18 16 40 23 48 14 17 95 183 95 195 0 4 8 19 19 33 10
15 42 72 71 127 57 108 76 141 160 289 30 53 65 115 77 138 21 38 49 83 94
149 10 15 25 42 33 60 9 19 31 57 49 85 17 28 41 65 52 83 11 18 53 83 93 144
41 62 82 128 93 147 11 19 38 60 60 90 22 30 75 106 117 168 149 218 188 272
277 389 50 64 97 127 105 139 33 50 177 233 230 294 31 36 72 86 91 111 19 26
56 71 82 100 26 30 88 101 138 159 343 394 736 800 1055 1090 70 63 141 129
159 145 120 112 492 426 625 526 48 37 117 91 153 120 71 59 285 217 577 426
32 23 528 352 571 378 18 11 45 27 61 36 16 10 46 28 66 42 64 43 223 137 231
137 5 0 19 8 32 19 13 10 42 29 64 42 22 12 64 36 93 53 127 74 149 86 192
107 25 12 52 27 60 34 18 14 136 78 349 187 84 43 165 86 180 96 14 10 42 25
61 32 19 7 42 19 50 25 8 7 26 16 40 19 21 6 112 49 435 207 33 16 64 29 69
29 9 0 116 49 196 90 19 10 49 21 67 25 18 3 42 14 55 24 13 10 43 25 68 33
25 9 83 32 130 53 47 21 108 45 136 55 28 10 69 27 92 39 23 12 47 21 54 21 8
0 32 9 53 20 22 11 61 27 87 34 25 8 57 22 71 30 13 9 48 23 78 31 30 8 72 23
94 34 21 12 46 21 53 21 8 0 40 11 71 24 31 13 76 31 101 39 25 9 83 30 130
47 47 17 120 42 162 55 43 13 90 31 105 38 15 8 52 20 81 26 29 6 69 19 90 30
20 10 55 22 77 25 21 4 55 16 75 26 19 9 64 25 100 33 64 16 153 43 240 73 25
9 72 23 105 31 33 8 83 23 110 33 28 11 81 26 118 34 37 9 80 22 95 30 15 7
47 16 71 20 24 4 69 16 100 27 31 11 88 26 128 34 39 7 85 21 101 29 16 8 59
20 96 26 36 6 88 19 114 29 26 10 72 22 102 26 30 4 81 16 113 26 32 11 89 26
125 33 37 7 103 23 147 34 44 11 103 25 130 30 28 5 91 19 140 31 198 49 222
54 280 64 33 5 85 16 115 23 50 13 135 30 265 55 28 5 74 15 103 23 29 8 90
20 135 25 45 6 106 17 135 25 28 8 103 22 165 31 61 8 131 22 154 30 23 8 88
19 145 25 57 5 139 18 183 29 44 10 125 24 180 30 55 6 127 18 160 26 33 9
119 22 191 29 72 7 136 16 140 19 14 8 191 35 274 41 41 3 107 12 145 21 39 8
120 19 180 25 139 13 270 30 315 41 19 4 94 13 165 18 156 13 289 30 331 42
17 6 110 14 205 19 175 10 307 23 344 34 11 4 117 13 235 22 200 14 299 23
410 39 25 3 158 13 295 21 138 9 282 17 320 20 39 2 88 9 110 14 22 6 180 15
350 21 171 6 362 14 425 19 189 14 506 30 820 41 162 6 381 14 485 19 990 45
3879 70 4770 41 471 -15 875 -39 915 -54 8 -4 87 -9 175 -12 153 -5 253 -14
395 -35 36 -5 139 -14 230 -19 91 -6 185 -15 210 -20 106 -22 173 -32 305 -42
77 -6 146 -14 155 -19 16 -8 109 -22 268 -40 51 -6 117 -17 146 -24 29 -8 104
-19 167 -26 63 -6 141 -20 174 -30 33 -10 96 -22 140 -25 44 -4 121 -17 170
-30 50 -13 131 -28 181 -34 50 -6 115 -19 145 -29 30 -11 81 -22 114 -26 33
-4 102 -18 154 -31 52 -14 108 -25 123 -25 15 0 56 -11 90 -23 35 -13 91 -27
125 -30 34 -4 88 -15 118 -26 31 -11 90 -25 131 -31 41 -6 90 -18 109 -26 18
-7 71 -22 117 -33 140 -33 209 -52 305 -82 50 -16 102 -29 115 -29 12 -1 48
-10 78 -21 30 -11 85 -27 122 -34 38 -8 86 -24 108 -35 21 -11 49 -20 60 -20
12 0 61 -13 108 -29 48 -16 103 -32 122 -35 19 -3 48 -13 64 -21 16 -8 56 -22
89 -31 34 -9 73 -21 87 -29 14 -7 52 -19 85 -26 33 -7 80 -23 104 -36 24 -13
55 -23 68 -23 13 0 41 -9 63 -20 22 -11 63 -25 92 -31 29 -6 69 -19 88 -29 19
-10 55 -23 80 -30 25 -6 59 -18 75 -26 17 -7 62 -24 100 -38 143 -49 171 -59
220 -81 28 -13 73 -30 100 -40 133 -46 163 -57 196 -75 20 -11 43 -20 50 -20
8 0 41 -14 74 -30 33 -16 69 -30 79 -30 11 0 38 -11 60 -24 23 -13 61 -29 86
-36 25 -7 56 -20 70 -30 14 -9 36 -20 50 -24 14 -4 50 -18 80 -31 30 -13 93
-40 140 -60 47 -20 103 -44 125 -55 108 -51 175 -80 182 -80 5 0 25 -11 45
-25 20 -14 43 -25 51 -25 8 0 66 -26 129 -58 63 -33 127 -62 143 -66 16 -4 40
-15 54 -25 14 -10 42 -24 61 -31 19 -7 46 -21 60 -30 14 -10 36 -21 50 -25 14
-4 37 -16 52 -27 15 -10 42 -24 60 -30 18 -6 44 -19 58 -28 14 -9 41 -23 60
-31 19 -8 64 -30 99 -49 132 -72 277 -150 318 -170 23 -11 70 -37 105 -57 70
-41 141 -80 208 -116 119 -64 146 -80 160 -92 8 -7 31 -20 50 -29 19 -9 60
-32 90 -51 30 -19 77 -47 104 -62 132 -76 144 -84 217 -134 15 -10 42 -25 60
-33 19 -9 48 -26 66 -39 18 -12 69 -44 114 -72 45 -27 123 -77 174 -110 50
-33 99 -64 107 -70 42 -27 176 -116 195 -129 12 -9 92 -63 178 -121 86 -58
161 -110 168 -115 7 -6 44 -31 82 -57 39 -25 113 -78 165 -116 52 -39 114 -84
138 -101 24 -17 58 -43 75 -57 18 -14 62 -48 100 -75 37 -27 80 -58 95 -69
142 -106 203 -153 269 -207 43 -35 105 -83 138 -108 34 -25 108 -84 164 -130
57 -47 160 -132 229 -189 70 -57 141 -117 157 -132 17 -16 66 -58 110 -95 151
-126 441 -389 764 -693 316 -298 808 -802 1112 -1141 42 -47 118 -132 170
-190 52 -58 119 -134 150 -170 115 -135 285 -337 314 -374 17 -21 68 -85 115
-141 47 -57 121 -149 165 -205 44 -57 94 -119 111 -139 40 -47 406 -539 459
-616 37 -53 85 -120 170 -235 39 -53 98 -140 274 -405 88 -132 170 -253 181
-270 11 -16 35 -52 52 -80 17 -27 47 -75 66 -105 20 -30 47 -73 60 -95 14 -22
37 -58 52 -80 15 -22 42 -67 60 -100 18 -33 44 -73 57 -88 13 -16 23 -32 23
-37 0 -4 36 -68 81 -141 44 -74 91 -151 102 -173 12 -21 33 -58 47 -81 14 -24
50 -87 80 -141 30 -53 70 -122 88 -153 18 -31 44 -78 58 -106 53 -105 68 -132
114 -210 26 -44 51 -91 55 -105 4 -14 18 -41 31 -60 13 -19 24 -39 24 -45 0
-10 6 -21 58 -115 18 -30 56 -104 87 -165 30 -60 59 -117 64 -125 15 -25 68
-143 76 -170 4 -14 16 -37 27 -52 10 -15 24 -42 30 -60 6 -18 19 -44 28 -58
10 -14 21 -36 25 -50 4 -14 31 -73 60 -132 30 -59 56 -121 60 -137 3 -16 13
-35 21 -42 7 -6 21 -34 29 -61 8 -27 23 -60 35 -75 11 -14 20 -33 20 -43 0 -9
11 -39 25 -66 14 -27 32 -70 41 -96 8 -26 19 -50 24 -53 5 -3 16 -29 25 -58
10 -28 24 -62 31 -74 13 -21 40 -88 84 -208 10 -27 28 -68 39 -90 12 -21 21
-46 21 -55 0 -8 9 -31 19 -51 11 -20 26 -58 34 -85 8 -27 24 -65 35 -84 11
-19 23 -51 27 -70 4 -19 15 -48 25 -65 10 -16 21 -46 25 -65 4 -19 16 -50 26
-68 10 -18 24 -54 31 -80 6 -26 22 -69 35 -97 12 -27 23 -59 23 -71 0 -12 11
-41 24 -66 13 -24 29 -68 35 -97 6 -28 18 -66 27 -84 9 -17 23 -57 30 -89 7
-31 23 -72 34 -90 11 -18 20 -46 20 -63 0 -16 11 -53 24 -81 13 -28 29 -74 35
-103 6 -28 20 -69 31 -91 11 -22 20 -47 20 -56 0 -9 13 -55 29 -103 16 -47 32
-104 36 -126 4 -21 15 -55 25 -75 10 -19 21 -58 25 -85 4 -28 16 -70 26 -95
11 -24 26 -77 35 -117 8 -40 23 -92 34 -115 11 -24 20 -55 20 -70 0 -15 14
-68 30 -118 17 -50 30 -104 30 -120 0 -16 9 -52 20 -79 10 -27 26 -87 34 -133
8 -45 22 -100 30 -120 9 -21 20 -69 26 -108 6 -39 17 -84 25 -101 9 -16 22
-74 31 -130 8 -55 21 -117 29 -137 8 -20 21 -77 30 -127 8 -49 24 -121 34
-160 11 -38 20 -91 20 -116 1 -25 12 -83 26 -129 14 -45 28 -112 31 -149 4
-36 16 -106 27 -156 11 -49 25 -133 32 -185 7 -52 20 -126 29 -165 9 -38 21
-122 26 -185 6 -63 16 -132 21 -153 18 -69 39 -211 39 -269 0 -53 5 -88 31
-213 5 -27 17 -133 25 -235 8 -102 19 -212 24 -245 16 -107 30 -267 35 -420 3
-82 10 -199 15 -260 31 -370 34 -478 34 -1270 0 -792 -3 -913 -34 -1270 -5
-60 -12 -166 -15 -235 -2 -69 -8 -159 -11 -200 -3 -41 -8 -93 -9 -115 -2 -22
-8 -67 -14 -100 -5 -33 -17 -145 -26 -250 -8 -104 -19 -203 -24 -220 -17 -55
-33 -189 -30 -240 l4 -50 14675 -3 c8071 -2 14699 0 14728 3 l52 6 0 23598 0
23598 -37 7 c-49 8 -33426 8 -33447 0 -9 -3 -16 -11 -16 -16 0 -6 -9 -29 -19
-52 -39 -81 -91 -204 -91 -212 0 -5 -13 -37 -30 -72 -16 -34 -44 -90 -60 -125
-17 -34 -30 -66 -30 -72 0 -5 -15 -41 -34 -80 -107 -222 -126 -262 -126 -271
0 -7 -343 -697 -387 -779 -6 -11 -30 -58 -53 -105 -23 -47 -58 -112 -76 -145
-19 -33 -45 -82 -59 -110 -14 -27 -40 -75 -57 -105 -16 -30 -41 -75 -54 -100
-14 -25 -38 -67 -54 -95 -16 -27 -41 -74 -56 -103 -14 -29 -30 -55 -35 -58 -5
-2 -17 -24 -28 -47 -12 -23 -29 -55 -39 -72 -9 -16 -30 -52 -46 -80 -16 -27
-53 -89 -83 -136 -29 -47 -53 -90 -53 -95 0 -5 -14 -27 -30 -48 -17 -22 -30
-44 -30 -49 0 -5 -13 -27 -28 -50 -38 -56 -72 -109 -118 -187 -21 -36 -49 -79
-61 -96 -13 -17 -23 -33 -23 -36 0 -6 -101 -163 -128 -198 -11 -14 -26 -38
-35 -55 -19 -38 -169 -262 -226 -339 -24 -32 -49 -68 -55 -80 -10 -19 -69
-105 -121 -176 -11 -15 -40 -56 -64 -91 -24 -35 -67 -95 -96 -134 -28 -38 -81
-110 -118 -160 -110 -150 -177 -239 -282 -373 -55 -70 -122 -157 -150 -192
-78 -102 -191 -241 -310 -381 -60 -72 -126 -149 -145 -173 -86 -106 -186 -221
-296 -342 -65 -72 -130 -144 -143 -160 -66 -79 -454 -486 -668 -698 -341 -339
-816 -780 -1018 -945 -27 -22 -81 -67 -120 -101 -254 -218 -678 -552 -990
-780 -42 -30 -106 -78 -144 -106 -37 -28 -77 -57 -89 -63 -11 -6 -67 -44 -123
-84 -56 -39 -167 -116 -248 -169 -80 -53 -157 -105 -171 -115 -14 -10 -54 -36
-90 -57 -36 -22 -78 -50 -93 -63 -16 -12 -34 -23 -40 -23 -7 0 -30 -14 -51
-30 -22 -17 -44 -30 -49 -30 -5 0 -26 -13 -46 -28 -20 -15 -47 -33 -61 -40
-14 -7 -45 -25 -70 -42 -51 -33 -141 -85 -185 -108 -16 -8 -38 -22 -48 -30 -9
-9 -39 -27 -66 -41 -27 -14 -117 -64 -201 -111 -195 -110 -316 -175 -465 -250
-66 -33 -127 -64 -135 -69 -8 -5 -100 -51 -205 -101 -104 -51 -235 -114 -291
-141 -55 -27 -105 -49 -110 -49 -5 0 -36 -13 -69 -30 -33 -16 -98 -45 -145
-65 -47 -19 -98 -43 -115 -52 -28 -15 -69 -31 -218 -86 -34 -13 -73 -31 -87
-39 -14 -9 -41 -19 -60 -23 -19 -4 -55 -18 -80 -31 -25 -13 -50 -24 -57 -24
-7 0 -36 -11 -65 -24 -29 -14 -75 -32 -103 -41 -140 -47 -192 -66 -215 -79
-14 -7 -49 -19 -79 -25 -30 -6 -68 -20 -85 -30 -17 -11 -49 -23 -71 -27 -22
-3 -57 -15 -77 -25 -21 -11 -68 -26 -104 -35 -37 -8 -79 -21 -94 -29 -15 -8
-53 -21 -86 -29 -32 -8 -88 -24 -124 -36 -153 -49 -345 -104 -456 -130 -45
-11 -94 -24 -110 -30 -16 -6 -67 -20 -114 -30 -47 -10 -110 -25 -140 -33 -128
-36 -365 -89 -540 -122 -47 -9 -134 -27 -195 -40 -60 -13 -148 -29 -195 -36
-47 -6 -107 -17 -135 -25 -27 -7 -95 -18 -150 -24 -55 -6 -131 -18 -170 -25
-74 -14 -118 -21 -200 -30 -27 -3 -81 -10 -120 -15 -172 -24 -241 -31 -429
-46 -111 -9 -237 -20 -281 -25 -258 -28 -406 -32 -1175 -33 -777 0 -931 4
-1205 34 -167 18 -329 29 -590 39 -148 6 -313 16 -365 21 -113 12 -557 33
-652 30 -36 -1 -86 4 -110 11 -23 7 -83 13 -133 14 -117 4 -765 43 -920 56
-127 11 -179 14 -480 29 -104 5 -230 14 -280 20 -49 7 -94 11 -100 9 -5 -1
-44 1 -85 4 -78 8 -421 28 -525 32 -33 2 -109 8 -170 14 -60 6 -180 15 -265
21 -297 19 -456 31 -535 40 -44 4 -224 18 -400 29 -176 12 -365 26 -420 33
-55 6 -111 11 -125 11 -91 0 -400 19 -470 29 -47 6 -107 12 -135 13 -27 1
-122 7 -210 14 -88 6 -232 16 -320 22 -88 6 -198 15 -245 20 -47 4 -229 17
-405 29 -176 11 -381 24 -455 30 -159 11 -517 31 -645 35 -49 2 -157 8 -240
14 -398 29 -616 34 -1470 34 -992 1 -1029 -1 -1580 -67 -247 -30 -519 -81
-695 -132 -47 -13 -110 -29 -140 -35 -30 -6 -64 -16 -75 -22 -11 -6 -47 -19
-80 -28 -90 -27 -216 -73 -250 -91 -16 -8 -41 -19 -55 -23 -14 -4 -63 -25
-109 -47 -115 -54 -131 -45 -86 47 14 28 25 57 25 65 0 9 7 26 16 38 8 12 24
47 34 78 11 31 26 64 32 72 7 8 20 31 28 51 46 109 216 383 312 501 257 318
428 486 770 752 125 98 308 229 448 323 130 86 313 205 317 205 3 0 19 10 36
22 32 23 92 60 329 202 73 44 144 88 158 97 14 9 70 42 125 74 55 32 111 65
124 74 25 17 89 55 161 96 25 14 70 41 100 60 30 19 75 45 100 59 40 22 103
63 251 160 24 16 67 47 94 70 28 23 66 53 85 68 109 81 212 195 301 333 68
105 79 127 88 162 6 21 20 65 31 98 18 49 21 80 21 187 -1 117 -4 137 -35 231
-50 150 -102 248 -216 402 -37 50 -79 108 -94 130 -14 22 -51 74 -81 115 -30
41 -80 111 -110 155 -30 44 -68 98 -84 120 -16 22 -55 78 -88 124 -32 46 -69
99 -83 118 -14 20 -36 53 -50 74 -22 32 -67 101 -136 203 -10 16 -28 41 -39
56 -22 30 -164 243 -200 300 -12 19 -30 48 -41 64 -10 16 -30 46 -44 66 -14
21 -47 71 -74 112 -27 40 -59 89 -71 108 -108 169 -141 221 -166 258 -16 23
-29 46 -29 51 0 5 -13 25 -30 46 -16 21 -30 43 -30 50 0 7 -6 18 -14 24 -7 6
-35 48 -62 94 -49 84 -59 99 -111 177 -16 25 -33 53 -36 63 -4 9 -31 55 -62
101 -30 46 -55 86 -55 89 0 3 -18 34 -40 68 -22 35 -54 89 -70 119 -17 30 -44
75 -60 100 -17 25 -39 63 -50 85 -11 22 -36 65 -55 95 -19 30 -45 75 -58 100
-13 25 -40 72 -59 105 -78 133 -152 262 -175 305 -13 25 -37 68 -54 95 -16 28
-40 73 -54 100 -14 28 -41 77 -61 110 -19 33 -44 78 -55 100 -12 22 -34 63
-50 90 -15 28 -44 82 -63 120 -19 39 -51 96 -70 128 -19 31 -38 67 -41 80 -4
12 -14 33 -24 47 -20 31 -53 94 -109 208 -24 48 -49 98 -57 112 -7 14 -35 68
-61 120 -26 52 -66 129 -90 171 -23 42 -61 118 -84 170 -22 52 -45 101 -50
109 -5 8 -30 58 -55 110 -26 52 -51 104 -58 115 -37 65 -97 192 -97 206 0 9
-9 28 -20 42 -11 14 -27 45 -35 68 -9 24 -22 50 -29 59 -8 8 -17 26 -20 40 -4
14 -29 70 -55 125 -97 200 -121 254 -121 268 0 8 -11 31 -25 51 -14 20 -28 49
-31 64 -4 15 -20 51 -35 81 -16 30 -29 62 -29 71 0 10 -8 28 -19 41 -10 13
-23 40 -30 59 -6 19 -22 57 -36 84 -14 27 -25 57 -25 65 0 9 -11 33 -25 53
-14 20 -25 46 -25 57 0 11 -9 25 -19 31 -25 13 -85878 14 -85913 1 -18 -7 -24
-17 -26 -46 -2 -21 -12 -55 -23 -77 -11 -21 -25 -64 -30 -96 -6 -31 -19 -72
-29 -92 -9 -19 -23 -59 -29 -88 -6 -29 -19 -69 -30 -90 -10 -20 -22 -55 -25
-77 -4 -21 -16 -55 -25 -75 -10 -19 -24 -60 -31 -90 -7 -30 -21 -70 -31 -89
-11 -18 -25 -56 -30 -85 -6 -28 -19 -64 -29 -81 -10 -16 -21 -46 -25 -65 -4
-19 -15 -53 -25 -75 -37 -81 -72 -172 -89 -226 -9 -30 -23 -66 -32 -80 -9 -13
-20 -39 -24 -58 -4 -18 -20 -63 -37 -100 -16 -36 -39 -88 -50 -116 -12 -27
-36 -81 -54 -120 -17 -38 -35 -81 -39 -95 -4 -14 -18 -45 -31 -70 -13 -25 -24
-51 -24 -58 0 -8 -8 -26 -19 -40 -10 -15 -22 -38 -26 -52 -4 -14 -21 -49 -36
-79 -16 -30 -29 -59 -29 -65 0 -10 -104 -220 -154 -311 -9 -16 -16 -35 -16
-41 0 -6 -9 -23 -20 -37 -11 -14 -27 -45 -35 -68 -9 -24 -21 -50 -29 -59 -7
-8 -19 -31 -26 -50 -7 -19 -21 -46 -30 -60 -10 -14 -21 -36 -25 -50 -4 -14
-17 -38 -30 -55 -12 -16 -26 -41 -30 -55 -4 -14 -18 -41 -31 -60 -13 -19 -24
-39 -24 -44 0 -5 -11 -23 -24 -40 -13 -17 -27 -42 -31 -56 -4 -14 -17 -38 -30
-55 -12 -16 -26 -41 -30 -55 -4 -14 -18 -39 -31 -56 -13 -17 -24 -34 -24 -38
0 -4 -19 -38 -42 -76 -93 -152 -108 -177 -133 -220 -14 -25 -36 -61 -48 -81
-12 -19 -31 -50 -42 -68 -23 -38 -68 -110 -100 -161 -12 -19 -44 -68 -71 -108
-27 -40 -60 -92 -74 -116 -14 -24 -44 -69 -68 -102 -23 -32 -70 -102 -105
-154 -34 -52 -82 -122 -106 -155 -25 -33 -65 -89 -89 -124 -25 -36 -50 -70
-56 -77 -6 -6 -29 -37 -51 -68 -22 -32 -68 -94 -103 -139 -35 -45 -89 -116
-120 -157 -91 -120 -209 -266 -317 -393 -55 -66 -107 -130 -116 -143 -24 -37
-259 -301 -508 -573 -115 -125 -757 -768 -862 -863 -41 -36 -113 -101 -160
-145 -47 -43 -119 -107 -160 -143 -40 -36 -94 -83 -119 -106 -42 -38 -220
-188 -335 -284 -96 -79 -301 -242 -365 -290 -36 -27 -96 -74 -135 -104 -86
-68 -259 -198 -340 -255 -33 -23 -80 -57 -105 -76 -25 -19 -58 -42 -74 -51
-16 -9 -57 -38 -91 -64 -34 -26 -75 -55 -91 -64 -16 -9 -63 -41 -104 -71 -41
-31 -88 -63 -104 -73 -16 -9 -40 -26 -55 -37 -14 -12 -60 -41 -101 -65 -41
-24 -84 -51 -95 -60 -11 -9 -49 -34 -85 -56 -36 -21 -77 -48 -92 -59 -14 -11
-46 -31 -69 -45 -23 -14 -63 -39 -88 -55 -25 -17 -57 -36 -71 -43 -14 -7 -49
-27 -77 -45 -100 -61 -268 -161 -298 -178 -16 -9 -79 -44 -140 -79 -60 -34
-129 -73 -152 -86 -24 -13 -64 -36 -90 -51 -57 -32 -159 -86 -225 -119 -25
-13 -49 -28 -52 -33 -4 -5 -23 -15 -44 -22 -20 -6 -47 -20 -60 -30 -13 -10
-39 -23 -59 -30 -20 -6 -50 -21 -67 -33 -46 -31 -502 -256 -520 -256 -3 0 -23
-11 -44 -24 -20 -14 -49 -28 -64 -31 -15 -4 -32 -13 -39 -21 -6 -8 -35 -21
-64 -30 -30 -8 -59 -21 -65 -29 -6 -8 -28 -19 -48 -26 -20 -6 -57 -22 -82 -35
-25 -13 -49 -24 -53 -24 -8 0 -95 -39 -192 -85 -27 -13 -61 -27 -75 -31 -14
-4 -37 -15 -51 -25 -14 -10 -44 -22 -67 -27 -22 -5 -53 -19 -69 -30 -16 -11
-42 -23 -59 -27 -26 -6 -104 -38 -209 -86 -22 -10 -58 -23 -80 -30 -22 -6 -60
-22 -85 -35 -25 -13 -52 -24 -60 -24 -8 0 -35 -11 -60 -24 -25 -13 -58 -26
-75 -30 -76 -19 -228 -106 -301 -173 -42 -38 -104 -115 -104 -128 0 -4 -13
-25 -29 -48 -16 -23 -32 -56 -36 -74 -3 -17 -13 -37 -20 -43 -8 -7 -17 -28
-20 -49 -3 -20 -15 -87 -27 -150 -21 -120 -21 -240 1 -411 5 -41 14 -115 19
-165 6 -49 17 -108 25 -130 9 -22 21 -71 27 -110 6 -38 22 -104 35 -145 65
-202 85 -269 85 -283 0 -8 11 -39 25 -69 14 -29 25 -62 25 -74 0 -11 11 -43
25 -69 13 -27 27 -63 31 -79 6 -29 37 -111 89 -236 43 -104 67 -165 82 -205 8
-22 25 -62 39 -89 13 -28 24 -57 24 -65 0 -9 8 -30 19 -46 10 -17 24 -48 31
-70 7 -22 22 -58 35 -80 12 -22 25 -53 29 -69 4 -17 16 -42 27 -57 10 -15 19
-34 19 -42 0 -8 13 -41 29 -73 44 -88 91 -193 91 -202 0 -4 24 -55 54 -113 30
-59 57 -120 60 -136 4 -17 18 -45 32 -64 13 -18 24 -38 24 -44 0 -5 10 -28 21
-50 12 -22 28 -57 36 -79 7 -22 20 -47 27 -56 8 -8 17 -26 21 -40 4 -14 33
-79 65 -145 32 -66 61 -131 65 -145 4 -14 15 -36 25 -50 9 -14 22 -40 28 -58
6 -18 20 -45 32 -59 11 -14 20 -33 20 -42 0 -9 24 -64 53 -121 30 -58 57 -118
61 -134 4 -17 16 -42 27 -57 10 -15 19 -31 19 -35 0 -7 89 -207 158 -354 14
-30 35 -77 48 -105 12 -27 36 -79 53 -115 16 -36 33 -78 37 -95 4 -16 18 -50
31 -74 12 -24 23 -49 23 -55 0 -6 14 -38 30 -70 17 -32 30 -65 30 -73 0 -7 11
-36 25 -63 14 -27 25 -56 25 -63 0 -8 11 -35 25 -61 14 -26 30 -68 36 -94 7
-26 20 -63 29 -82 10 -19 25 -61 34 -92 9 -31 20 -59 25 -62 5 -3 15 -30 21
-58 7 -29 21 -70 32 -91 10 -21 23 -64 29 -95 5 -31 21 -82 34 -113 28 -63 36
-120 18 -126 -6 -2 -50 33 -97 79 -102 100 -236 226 -372 351 -55 50 -145 133
-200 183 -260 240 -403 370 -543 494 -84 74 -174 154 -200 176 -58 53 -141
125 -215 189 -32 28 -108 94 -170 149 -61 54 -127 110 -146 124 -19 14 -55 44
-80 67 -25 23 -57 50 -71 61 -15 10 -62 51 -106 89 -43 39 -99 86 -123 105
-24 19 -84 69 -133 110 -49 41 -101 84 -116 95 -14 11 -80 65 -147 120 -66 55
-138 114 -159 130 -21 17 -54 44 -74 61 -20 17 -54 43 -76 60 -22 16 -78 60
-125 99 -47 39 -105 86 -130 103 -25 18 -76 57 -115 88 -112 88 -422 326 -461
354 -12 8 -51 38 -88 65 -149 113 -185 140 -281 210 -55 41 -120 89 -144 107
-51 39 -106 78 -216 154 -44 30 -98 68 -120 85 -64 48 -170 122 -256 179 -20
14 -150 102 -289 195 -291 196 -269 182 -340 227 -128 80 -156 99 -175 114
-11 9 -29 19 -40 24 -11 4 -50 28 -85 52 -36 24 -99 63 -140 88 -41 24 -84 51
-95 61 -11 10 -31 22 -45 28 -14 6 -54 29 -90 51 -185 112 -392 232 -593 344
-28 16 -74 42 -102 57 -125 69 -192 105 -215 113 -14 5 -34 16 -46 25 -19 15
-451 232 -569 285 -46 22 -114 53 -240 111 -127 59 -182 83 -205 90 -14 4 -38
15 -55 25 -16 10 -48 25 -70 33 -66 25 -167 67 -219 93 -28 13 -57 24 -66 24
-9 0 -31 11 -50 25 -19 14 -41 25 -50 25 -9 0 -38 11 -66 24 -64 31 -170 75
-214 88 -19 5 -49 19 -67 29 -17 11 -55 27 -85 35 -29 9 -60 22 -68 29 -8 7
-28 17 -45 21 -16 4 -50 17 -75 29 -25 12 -61 26 -80 30 -19 4 -55 18 -80 31
-25 13 -51 24 -58 24 -7 0 -34 11 -60 24 -26 13 -67 29 -90 36 -24 6 -58 20
-75 31 -18 10 -41 19 -52 19 -11 0 -47 13 -80 29 -33 16 -75 32 -94 36 -19 4
-54 18 -79 31 -25 13 -52 24 -60 24 -9 0 -34 9 -56 19 -39 19 -86 36 -201 76
-27 10 -72 26 -100 37 -27 11 -77 29 -109 39 -33 11 -65 24 -70 29 -6 4 -34
14 -61 21 -28 6 -71 23 -97 35 -26 13 -57 24 -68 24 -12 0 -52 13 -88 29 -37
16 -83 32 -102 36 -19 4 -51 16 -70 25 -20 10 -54 21 -75 25 -22 4 -55 16 -74
26 -18 11 -56 25 -85 31 -28 6 -68 19 -88 29 -21 11 -61 24 -90 30 -29 6 -69
19 -88 29 -19 9 -60 23 -90 30 -30 7 -64 19 -75 26 -11 7 -47 19 -80 27 -33 8
-75 22 -92 31 -18 9 -56 21 -85 27 -29 6 -70 20 -90 30 -21 11 -61 24 -90 30
-29 7 -71 19 -93 29 -22 9 -58 20 -80 24 -21 4 -55 16 -75 26 -20 10 -61 23
-93 29 -31 5 -67 17 -79 25 -13 9 -55 22 -93 30 -39 8 -90 24 -115 35 -25 11
-54 21 -65 21 -11 0 -51 12 -90 26 -38 13 -91 29 -117 34 -27 5 -68 19 -92 30
-25 11 -54 20 -66 20 -11 0 -46 9 -78 21 -54 20 -135 43 -323 93 -47 13 -95
28 -106 35 -12 6 -55 18 -95 26 -40 9 -91 23 -113 31 -22 9 -67 23 -100 30
-33 7 -87 22 -120 32 -91 30 -203 62 -270 77 -33 8 -87 23 -120 33 -60 19
-113 34 -275 73 -47 11 -107 29 -135 40 -27 10 -72 22 -100 25 -27 4 -70 16
-95 26 -25 11 -80 26 -122 33 -42 8 -90 21 -106 29 -16 8 -57 20 -90 25 -33 5
-97 21 -142 35 -44 14 -92 26 -105 26 -14 0 -54 11 -91 25 -36 14 -79 25 -95
25 -16 0 -71 14 -122 30 -52 17 -106 30 -121 30 -15 0 -54 9 -88 21 -34 11
-86 25 -117 30 -31 6 -90 21 -131 34 -41 13 -95 26 -120 30 -25 3 -80 17 -123
30 -43 14 -89 25 -103 25 -14 0 -58 11 -97 24 -40 14 -92 27 -117 31 -25 3
-79 17 -120 30 -41 13 -97 26 -125 30 -27 4 -72 15 -99 26 -28 10 -86 24 -130
30 -44 6 -92 17 -108 25 -15 8 -66 21 -114 29 -47 9 -102 22 -122 31 -20 8
-70 19 -111 25 -41 6 -95 19 -120 29 -25 10 -78 23 -117 29 -39 6 -89 17 -111
25 -23 8 -79 22 -126 30 -47 9 -101 23 -119 31 -19 7 -66 19 -104 25 -38 6
-105 22 -149 35 -44 13 -102 26 -128 30 -26 3 -64 13 -84 21 -20 9 -76 22
-124 30 -49 8 -106 21 -126 29 -21 8 -69 21 -108 29 -91 18 -231 52 -325 78
-41 11 -117 29 -169 40 -52 11 -102 23 -111 28 -10 5 -48 14 -86 20 -38 6 -94
19 -126 30 -31 11 -86 24 -123 30 -37 6 -83 17 -102 25 -19 8 -71 21 -116 30
-45 8 -104 24 -132 34 -27 10 -74 21 -103 25 -30 4 -77 16 -105 26 -29 11 -79
23 -112 29 -33 5 -95 21 -137 35 -42 14 -88 26 -102 26 -14 0 -50 9 -80 20
-30 12 -87 27 -127 35 -41 7 -99 23 -129 34 -30 11 -67 20 -82 21 -15 0 -68
14 -118 30 -50 17 -100 30 -111 30 -11 0 -53 11 -92 24 -40 14 -92 27 -116 31
-24 4 -62 15 -85 25 -22 10 -70 23 -106 30 -36 6 -85 19 -110 30 -25 10 -73
23 -107 30 -34 6 -81 19 -105 29 -24 10 -65 22 -93 26 -27 4 -62 13 -77 21
-15 8 -58 21 -95 29 -37 9 -89 25 -115 35 -26 11 -56 20 -67 20 -18 0 -186 50
-291 86 -25 9 -76 24 -115 34 -38 10 -95 28 -125 39 -30 11 -63 20 -73 21 -10
0 -35 9 -56 20 -21 10 -71 26 -111 34 -40 9 -77 20 -84 25 -6 5 -43 18 -82 29
-39 11 -84 26 -100 35 -16 8 -54 20 -84 27 -30 7 -71 20 -90 30 -19 10 -53 20
-75 24 -22 4 -55 16 -73 27 -19 11 -54 24 -80 30 -25 5 -60 16 -77 24 -28 13
-78 31 -190 70 -27 10 -72 26 -100 37 -27 11 -77 28 -110 38 -33 10 -78 28
-100 39 -21 12 -46 21 -55 21 -8 0 -31 9 -51 19 -20 11 -56 25 -80 31 -24 7
-65 23 -91 36 -26 13 -54 24 -63 24 -8 0 -41 14 -72 30 -31 17 -64 30 -75 30
-10 0 -44 14 -75 30 -31 17 -63 30 -72 30 -9 0 -30 8 -47 19 -17 10 -41 22
-55 26 -37 11 -157 63 -223 96 -32 16 -65 29 -73 29 -8 0 -31 11 -51 25 -20
14 -44 25 -53 25 -9 0 -70 27 -135 60 -65 33 -124 60 -132 60 -8 0 -27 9 -43
20 -15 12 -43 26 -61 32 -17 6 -48 22 -66 35 -19 13 -43 23 -52 23 -10 0 -29
9 -43 20 -14 11 -44 27 -67 35 -23 8 -53 24 -67 35 -14 11 -31 20 -37 20 -6 0
-24 7 -41 16 -16 9 -55 30 -85 46 -177 93 -247 131 -260 142 -8 8 -32 19 -52
25 -20 7 -42 19 -49 27 -6 8 -30 23 -53 35 -86 43 -125 65 -142 81 -11 9 -35
23 -54 32 -19 9 -55 29 -80 46 -25 16 -63 39 -85 51 -22 12 -52 31 -67 43 -14
11 -48 34 -75 49 -26 16 -63 38 -82 50 -19 12 -42 27 -51 32 -8 6 -42 28 -74
50 -32 22 -75 51 -96 65 -58 38 -192 131 -222 154 -15 12 -46 35 -70 52 -24
16 -87 64 -142 105 -54 41 -110 83 -125 94 -25 19 -205 163 -246 197 -430 356
-944 862 -1230 1208 -33 40 -96 116 -141 169 -86 102 -190 238 -291 379 -34
48 -76 105 -92 127 -52 71 -245 355 -262 386 -10 16 -28 47 -41 67 -55 83 -78
122 -78 131 0 5 -11 22 -24 38 -13 15 -34 48 -47 72 -13 23 -35 62 -49 86 -14
24 -51 90 -83 147 -32 57 -62 110 -67 118 -5 8 -17 31 -25 50 -21 44 -54 105
-83 150 -12 19 -22 42 -22 50 0 8 -14 35 -30 59 -17 24 -30 51 -30 58 0 8 -9
28 -21 44 -11 16 -25 46 -31 66 -6 21 -21 53 -34 72 -13 20 -24 41 -24 49 0 7
-13 38 -30 69 -16 31 -30 61 -30 68 0 7 -13 39 -30 70 -16 31 -30 64 -30 72 0
8 -9 27 -19 42 -10 14 -24 44 -30 66 -6 22 -22 62 -36 89 -14 27 -25 56 -25
64 0 9 -11 34 -24 56 -13 23 -27 57 -31 76 -4 19 -18 55 -31 80 -13 25 -24 53
-24 63 0 10 -7 32 -17 50 -9 18 -28 70 -43 117 -22 69 -32 86 -51 91 -31 9
-44044 11 -44052 2z m103162 -8670 c11 -10 22 -27 22 -38 1 -11 1 -1373 1
-3027 -2 -2981 -2 -3008 -22 -3028 -11 -11 -32 -22 -47 -26 -27 -7 -108 -41
-208 -89 -27 -13 -61 -27 -75 -31 -14 -4 -36 -14 -50 -24 -14 -9 -46 -23 -72
-30 -26 -7 -53 -18 -59 -26 -6 -7 -27 -18 -47 -25 -20 -6 -48 -19 -62 -28 -14
-9 -88 -47 -165 -85 -77 -38 -151 -75 -165 -83 -14 -7 -47 -25 -75 -39 -27
-13 -77 -40 -110 -59 -33 -19 -70 -39 -83 -45 -13 -5 -38 -21 -56 -35 -18 -14
-37 -25 -42 -25 -5 -1 -40 -21 -79 -45 -38 -25 -90 -56 -115 -70 -41 -24 -82
-49 -156 -99 -104 -70 -194 -130 -249 -165 -22 -14 -54 -37 -72 -51 -73 -57
-98 -75 -124 -90 -14 -8 -70 -51 -124 -95 -54 -44 -129 -106 -169 -138 -200
-165 -556 -503 -711 -677 -213 -239 -339 -396 -486 -600 -21 -30 -43 -59 -47
-65 -29 -38 -206 -313 -236 -367 -21 -37 -42 -71 -47 -74 -6 -3 -21 -29 -35
-57 -14 -29 -38 -74 -53 -102 -16 -27 -44 -77 -62 -110 -30 -52 -84 -161 -200
-399 -16 -32 -29 -64 -29 -71 0 -7 -9 -23 -19 -37 -11 -13 -23 -38 -27 -54 -3
-16 -15 -45 -25 -64 -17 -33 -43 -96 -91 -229 -10 -29 -25 -63 -33 -75 -7 -11
-19 -43 -26 -71 -6 -27 -18 -61 -26 -75 -12 -23 -38 -96 -77 -215 -9 -27 -24
-70 -32 -95 -9 -25 -24 -74 -33 -110 -10 -36 -23 -75 -29 -87 -7 -12 -19 -54
-27 -93 -8 -39 -21 -83 -29 -98 -7 -15 -21 -62 -30 -104 -8 -42 -22 -94 -31
-114 -8 -21 -20 -69 -26 -108 -6 -39 -19 -92 -29 -117 -10 -25 -21 -67 -25
-95 -4 -27 -16 -76 -26 -109 -10 -33 -25 -100 -33 -150 -8 -49 -21 -106 -29
-125 -8 -19 -20 -78 -27 -130 -6 -52 -20 -120 -30 -150 -10 -30 -21 -89 -25
-130 -4 -41 -16 -115 -27 -165 -21 -99 -31 -157 -48 -288 -7 -48 -18 -109 -26
-134 -8 -25 -14 -65 -14 -87 0 -38 -16 -148 -40 -276 -6 -30 -15 -102 -21
-160 -5 -58 -12 -118 -15 -135 -16 -87 -25 -154 -39 -295 -8 -85 -19 -177 -25
-205 -11 -59 -24 -172 -45 -380 -9 -82 -20 -181 -26 -220 -14 -84 -14 -114 -2
-126 5 -5 1107 -9 2708 -9 2499 0 2700 -1 2717 -17 17 -16 18 -253 18 -7398 0
-7145 -1 -7382 -18 -7398 -17 -16 -512 -17 -7003 -17 l-6984 0 -18 21 c-16 20
-17 356 -12 6913 4 6499 9 7719 33 8016 5 63 19 255 31 425 11 171 27 335 35
365 8 30 14 62 14 70 0 8 5 80 12 160 10 135 18 196 40 325 5 28 14 100 20
160 12 125 19 174 30 195 4 8 15 78 24 155 9 77 22 154 27 170 6 17 19 86 29
155 11 69 26 154 35 190 8 36 20 96 25 134 5 38 19 101 29 140 11 39 22 91 26
116 4 25 17 86 30 135 13 50 26 113 29 142 4 28 14 69 22 89 9 20 22 71 30
113 8 42 23 103 34 136 10 33 22 83 26 110 4 28 15 72 26 99 10 27 25 82 33
122 8 40 20 85 28 101 9 16 20 54 26 85 5 31 17 74 26 95 10 21 23 66 30 100
8 34 20 72 29 85 8 13 20 51 26 85 6 35 22 87 35 115 14 29 25 64 25 78 0 14
9 42 20 63 11 21 26 64 34 96 7 31 19 68 26 82 7 13 21 49 31 79 10 30 34 100
54 155 20 55 45 125 56 155 11 30 28 73 39 96 11 22 20 46 20 54 0 8 9 32 20
54 11 23 28 66 39 96 11 30 36 93 56 140 21 47 44 103 51 125 8 22 23 56 33
75 10 19 22 46 26 60 3 14 19 52 35 85 42 90 85 183 115 250 15 33 51 110 80
170 29 61 56 121 60 135 4 14 16 37 27 52 10 15 24 42 30 60 6 18 19 44 28 58
10 14 21 36 25 50 4 14 16 36 25 50 10 14 25 41 34 60 10 19 44 85 76 145 33
61 73 135 89 165 43 82 114 208 171 305 16 28 41 70 55 95 14 25 41 70 60 100
19 30 44 73 56 95 12 22 29 51 39 65 9 14 30 45 45 70 16 25 41 64 57 87 15
23 28 45 28 50 0 4 21 37 46 73 24 36 52 76 61 90 75 113 210 314 239 355 19
28 46 66 59 85 79 113 122 172 166 230 27 36 75 99 106 140 117 155 180 237
228 295 48 58 78 95 147 181 79 98 246 293 441 514 296 333 803 835 1169 1156
36 33 111 98 165 145 54 48 134 116 178 152 44 36 137 112 207 169 298 243
650 504 1003 740 337 226 380 255 410 272 17 9 44 27 62 39 17 12 55 36 83 52
29 17 64 39 78 50 15 11 43 28 62 38 19 10 60 33 90 52 30 19 74 43 96 54 23
11 45 24 49 30 3 6 23 20 43 30 63 32 249 136 263 148 8 6 25 14 39 18 14 4
32 13 40 21 17 14 136 78 390 206 91 46 174 89 185 96 11 6 36 18 55 26 19 8
46 22 60 30 14 8 57 29 95 46 39 18 120 56 181 86 61 30 115 54 119 54 4 0 31
11 59 24 149 71 206 96 215 96 6 0 32 11 58 24 72 37 188 86 203 86 7 0 32 11
54 24 23 13 55 26 71 30 17 4 53 17 80 30 28 13 70 30 95 39 25 8 81 29 125
47 44 17 106 40 137 50 32 11 74 28 95 38 21 11 54 22 73 26 19 3 57 17 84 31
27 14 59 25 70 25 12 0 41 10 66 21 25 12 72 28 105 36 33 7 70 20 82 29 12 8
46 19 75 25 29 6 67 18 83 27 17 8 59 23 95 33 36 9 85 24 110 33 25 8 90 29
145 45 55 17 144 44 198 61 54 16 107 30 117 30 11 0 43 9 72 21 29 11 82 26
118 34 36 8 90 23 120 34 30 11 67 20 82 21 15 0 62 11 105 24 43 14 107 30
143 36 36 7 80 18 98 26 19 7 73 21 121 29 49 8 114 24 146 35 32 11 73 20 90
20 18 0 71 11 119 25 47 14 111 28 143 31 32 3 86 14 120 25 34 10 102 23 150
30 49 6 122 20 163 30 41 10 118 24 170 29 52 6 117 18 144 27 28 9 95 21 150
28 56 7 106 13 112 14 7 0 21 -7 33 -16z m43069 -90 c9 -13 12 -1381 11 -6767
-1 -3814 -5 -6845 -10 -6966 -5 -118 -14 -280 -19 -360 -5 -80 -14 -251 -20
-380 -6 -129 -14 -273 -19 -320 -5 -47 -18 -209 -30 -360 -11 -151 -27 -304
-35 -340 -9 -36 -20 -135 -26 -220 -11 -145 -20 -222 -41 -345 -5 -27 -13 -99
-19 -160 -5 -60 -19 -155 -29 -210 -11 -55 -23 -129 -26 -165 -6 -67 -13 -106
-40 -222 -8 -37 -15 -85 -15 -106 0 -38 -35 -225 -44 -241 -3 -4 -10 -48 -16
-97 -6 -49 -20 -122 -31 -163 -11 -41 -24 -109 -30 -150 -5 -42 -18 -103 -28
-136 -11 -33 -22 -87 -26 -120 -4 -33 -15 -86 -26 -117 -10 -32 -23 -89 -29
-128 -6 -39 -17 -87 -25 -107 -9 -20 -22 -73 -30 -117 -7 -45 -20 -97 -29
-116 -8 -19 -19 -64 -26 -100 -6 -36 -20 -92 -30 -125 -11 -33 -26 -93 -35
-133 -8 -40 -20 -82 -25 -93 -10 -18 -39 -119 -76 -264 -9 -33 -26 -85 -39
-115 -12 -30 -25 -73 -29 -96 -3 -23 -13 -59 -23 -80 -9 -21 -24 -66 -34 -99
-19 -64 -46 -149 -83 -255 -26 -73 -48 -137 -72 -207 -9 -27 -25 -66 -35 -88
-11 -22 -25 -62 -33 -90 -8 -27 -25 -77 -38 -110 -14 -33 -39 -98 -57 -145
-17 -47 -36 -94 -42 -104 -6 -10 -19 -42 -29 -70 -28 -80 -69 -178 -90 -218
-11 -20 -20 -43 -20 -51 0 -8 -13 -38 -29 -68 -15 -30 -31 -67 -35 -83 -4 -17
-16 -41 -26 -55 -10 -15 -23 -45 -29 -67 -6 -23 -19 -52 -30 -65 -10 -13 -21
-35 -25 -49 -7 -24 -139 -299 -216 -450 -21 -41 -59 -118 -85 -170 -25 -52
-51 -104 -57 -115 -7 -11 -23 -40 -36 -65 -13 -25 -29 -52 -36 -60 -7 -8 -19
-31 -26 -50 -7 -19 -19 -42 -25 -50 -11 -13 -81 -139 -140 -249 -11 -21 -30
-52 -42 -68 -13 -17 -23 -33 -23 -36 0 -3 -18 -34 -40 -68 -22 -35 -47 -77
-56 -94 -15 -28 -123 -201 -186 -298 -15 -23 -37 -58 -48 -77 -18 -31 -86
-132 -150 -225 -11 -16 -47 -68 -79 -115 -33 -47 -70 -98 -83 -114 -12 -16
-32 -44 -43 -62 -45 -75 -537 -710 -641 -829 -15 -16 -52 -59 -83 -95 -106
-123 -285 -325 -355 -400 -139 -150 -704 -714 -826 -824 -250 -227 -400 -360
-476 -422 -22 -18 -100 -83 -175 -145 -76 -63 -172 -141 -214 -174 -43 -33
-103 -80 -134 -105 -31 -25 -78 -61 -104 -80 -26 -19 -80 -60 -120 -91 -85
-65 -171 -128 -282 -204 -44 -30 -98 -68 -120 -84 -52 -39 -385 -261 -503
-337 -51 -32 -107 -69 -125 -81 -17 -12 -66 -41 -107 -64 -41 -23 -88 -53
-103 -66 -16 -13 -32 -23 -37 -23 -4 0 -37 -18 -71 -40 -74 -45 -177 -105
-310 -179 -26 -14 -85 -47 -132 -73 -47 -27 -89 -48 -94 -48 -6 0 -18 -9 -28
-20 -9 -10 -34 -25 -54 -31 -20 -7 -52 -22 -71 -33 -91 -56 -581 -300 -632
-316 -21 -6 -40 -15 -43 -20 -7 -11 -168 -90 -184 -90 -11 0 -38 -13 -168 -79
-34 -17 -68 -31 -75 -31 -7 0 -33 -11 -58 -24 -25 -13 -63 -29 -85 -36 -22 -7
-53 -21 -70 -31 -16 -11 -37 -19 -45 -19 -8 0 -42 -14 -75 -30 -33 -16 -66
-30 -73 -30 -7 0 -34 -11 -60 -25 -26 -14 -53 -25 -61 -25 -8 0 -44 -13 -80
-28 -65 -28 -95 -40 -235 -88 -38 -13 -74 -28 -80 -33 -6 -5 -36 -16 -66 -24
-30 -9 -82 -27 -115 -41 -33 -14 -68 -26 -77 -26 -10 0 -37 -9 -60 -19 -24
-10 -97 -36 -163 -56 -66 -21 -145 -46 -175 -57 -31 -10 -80 -25 -110 -33 -30
-7 -82 -23 -115 -34 -33 -11 -78 -24 -100 -29 -22 -5 -60 -16 -85 -25 -25 -8
-74 -22 -110 -31 -165 -41 -229 -58 -285 -76 -33 -11 -89 -24 -125 -29 -36 -5
-93 -18 -127 -30 -34 -12 -73 -21 -87 -21 -13 0 -75 -13 -137 -29 -63 -16
-139 -31 -170 -35 -31 -3 -76 -13 -100 -21 -24 -9 -91 -22 -149 -30 -59 -7
-146 -22 -196 -33 -49 -11 -140 -26 -203 -32 -62 -7 -125 -16 -140 -20 -42
-13 -160 -29 -246 -35 -44 -2 -111 -9 -150 -15 -125 -19 -228 -29 -368 -36
-117 -5 -141 -4 -162 10 l-25 16 0 3100 c0 1956 4 3108 10 3124 7 19 22 29 67
42 32 9 70 23 85 30 15 8 56 20 90 28 35 8 86 23 113 34 28 11 73 27 100 35
28 9 86 29 130 45 44 16 96 35 115 42 19 7 58 21 85 32 28 11 75 28 105 38 30
10 73 27 95 39 21 12 45 21 52 21 8 0 36 11 63 25 27 14 56 25 63 25 8 0 38
13 68 29 30 15 68 32 86 35 17 4 37 14 43 21 6 8 28 19 48 25 20 7 150 69 289
138 318 160 323 163 359 187 16 12 45 28 64 38 35 18 56 30 172 101 35 21 72
44 83 50 19 11 288 191 345 231 144 102 412 317 560 450 72 65 379 373 452
453 76 84 316 382 367 457 187 271 244 358 299 458 13 23 30 49 37 57 7 8 16
27 20 42 4 15 13 32 20 38 8 6 33 50 56 98 24 48 54 101 66 118 13 17 23 35
23 40 0 5 14 38 31 74 17 36 44 92 59 125 15 33 42 89 59 125 17 36 31 70 31
77 0 7 11 33 25 59 14 26 25 54 25 63 0 9 11 36 24 61 13 25 27 61 31 80 4 19
18 55 30 81 13 25 27 63 30 85 4 21 15 53 25 69 10 17 23 55 29 86 7 31 20 71
30 90 10 19 22 54 25 79 4 25 18 74 30 110 22 61 33 101 72 253 9 34 25 96 36
137 12 41 25 98 30 125 5 28 20 91 33 140 13 50 27 122 31 160 3 39 15 95 25
125 10 30 23 91 28 135 6 44 17 116 26 160 17 85 28 159 45 295 6 47 15 110
21 140 6 30 19 138 30 240 11 102 24 214 29 250 5 36 14 135 20 220 6 85 15
196 20 245 23 221 52 731 56 990 1 83 7 163 13 178 16 42 15 468 -2 490 -11
17 -173 18 -2778 17 -1946 0 -2775 3 -2797 11 -20 7 -34 21 -41 41 -8 22 -11
2124 -11 7203 l0 7172 20 26 c11 14 30 27 43 29 12 2 3156 2 6987 1 6535 -3
6966 -4 6978 -20z m57242 -2228 c164 -4 287 -14 405 -36 28 -5 110 -15 183
-24 74 -8 157 -22 185 -30 29 -8 90 -19 136 -25 46 -6 107 -20 135 -30 28 -11
81 -24 117 -30 37 -5 83 -17 103 -25 19 -8 59 -20 88 -26 29 -6 85 -21 123
-33 39 -13 88 -28 110 -34 22 -6 90 -29 150 -52 61 -22 126 -46 145 -52 19 -5
56 -21 82 -34 26 -13 54 -24 61 -24 8 0 34 -11 59 -24 25 -13 58 -27 75 -30
17 -4 45 -18 64 -32 18 -13 40 -24 49 -24 16 0 383 -182 407 -201 6 -6 30 -20
53 -32 72 -38 304 -180 333 -204 16 -13 33 -23 38 -23 5 0 38 -22 72 -48 34
-27 73 -55 87 -62 14 -7 39 -24 55 -37 17 -13 60 -47 97 -76 154 -121 198
-156 287 -232 108 -92 408 -371 419 -390 4 -7 41 -49 82 -92 261 -275 514
-607 746 -976 27 -43 60 -98 74 -122 14 -24 44 -78 68 -119 23 -41 42 -79 42
-85 0 -5 11 -22 23 -38 13 -15 29 -43 35 -61 6 -18 20 -45 30 -60 11 -15 23
-38 27 -52 4 -14 15 -41 25 -60 53 -105 122 -265 146 -339 7 -24 22 -57 33
-75 10 -17 22 -47 26 -66 4 -19 14 -51 22 -70 31 -70 75 -196 88 -253 7 -31
22 -81 33 -110 11 -28 26 -79 35 -112 8 -33 22 -89 31 -125 37 -152 67 -290
77 -364 6 -43 15 -90 20 -104 5 -13 16 -82 24 -152 9 -70 20 -160 25 -201 41
-298 47 -729 16 -1224 -7 -114 -37 -350 -61 -475 -13 -69 -29 -160 -35 -204
-7 -43 -18 -97 -26 -119 -8 -22 -19 -72 -25 -111 -6 -39 -18 -84 -26 -99 -8
-16 -20 -61 -28 -101 -8 -40 -23 -95 -33 -122 -11 -27 -23 -67 -26 -89 -4 -22
-16 -60 -26 -85 -10 -25 -27 -72 -38 -105 -11 -33 -32 -91 -47 -130 -15 -38
-37 -97 -49 -130 -12 -33 -32 -79 -44 -102 -12 -23 -22 -49 -22 -58 0 -9 -13
-42 -30 -73 -16 -31 -70 -140 -120 -242 -50 -102 -109 -216 -132 -255 -23 -38
-52 -90 -65 -115 -26 -52 -160 -258 -248 -385 -33 -48 -67 -96 -75 -108 -42
-61 -112 -153 -195 -252 -50 -60 -98 -120 -106 -132 -35 -51 -334 -364 -464
-486 -236 -221 -531 -459 -735 -594 -30 -20 -62 -41 -72 -47 -9 -6 -49 -33
-90 -60 -40 -27 -84 -56 -98 -66 -14 -10 -45 -28 -69 -41 -23 -13 -64 -36 -89
-51 -26 -16 -67 -37 -92 -49 -25 -12 -52 -27 -60 -34 -16 -14 -250 -133 -341
-174 -30 -13 -81 -37 -114 -52 -108 -49 -205 -89 -218 -89 -6 0 -25 -7 -42
-16 -27 -15 -73 -32 -210 -79 -27 -10 -77 -28 -110 -40 -33 -13 -86 -28 -118
-35 -32 -6 -77 -20 -100 -30 -23 -10 -62 -21 -87 -25 -25 -4 -80 -18 -123 -31
-43 -13 -91 -24 -107 -24 -16 0 -62 -11 -102 -24 -40 -13 -107 -26 -148 -30
-41 -4 -93 -11 -115 -16 -94 -21 -216 -39 -295 -45 -47 -3 -123 -10 -170 -15
-118 -14 -423 -30 -555 -31 -243 0 -807 45 -939 76 -39 9 -108 21 -155 26 -48
5 -117 18 -156 28 -38 11 -109 26 -157 35 -48 8 -95 19 -105 24 -10 5 -53 17
-96 27 -43 9 -94 23 -113 31 -19 8 -62 21 -97 29 -68 15 -162 46 -247 81 -30
12 -73 27 -95 33 -22 6 -58 20 -80 31 -21 11 -46 20 -53 20 -13 0 -123 45
-217 90 -109 51 -195 90 -201 90 -3 0 -18 8 -32 18 -15 10 -43 25 -62 32 -19
7 -42 19 -50 25 -8 6 -31 18 -50 25 -19 8 -46 22 -59 32 -14 10 -43 28 -65 39
-23 11 -62 32 -87 47 -26 15 -66 38 -90 51 -24 13 -55 32 -69 41 -14 10 -78
53 -144 96 -65 44 -131 88 -146 99 -15 11 -40 29 -56 40 -131 91 -332 252
-493 395 -58 52 -124 111 -146 130 -89 79 -331 332 -439 460 -222 265 -324
398 -436 571 -14 22 -47 72 -74 112 -81 119 -96 143 -96 151 0 4 -11 22 -24
39 -24 33 -182 316 -210 377 -8 19 -20 42 -25 50 -6 8 -24 47 -42 85 -17 39
-47 102 -65 141 -19 39 -34 76 -34 83 0 7 -9 30 -20 50 -24 45 -84 197 -135
346 -10 28 -28 77 -40 110 -12 33 -26 76 -29 95 -4 19 -16 58 -26 85 -18 49
-24 73 -70 260 -12 50 -30 122 -41 161 -10 39 -23 104 -29 145 -6 41 -19 115
-30 166 -11 51 -24 148 -30 215 -6 68 -14 152 -20 188 -25 168 -29 232 -35
460 -6 264 6 578 29 755 8 61 14 112 13 115 0 3 2 25 6 50 3 25 11 90 17 145
6 55 17 120 25 145 7 25 17 74 20 110 4 36 17 106 30 155 13 50 28 121 34 158
7 38 20 89 30 115 10 26 22 69 26 97 4 27 15 66 25 85 10 20 23 62 29 93 6 32
19 78 30 101 10 24 22 59 26 77 4 19 18 55 31 81 13 26 24 56 24 66 0 10 9 36
20 57 11 22 27 60 34 85 8 25 23 63 35 85 11 22 21 44 21 50 0 5 13 37 29 70
15 33 43 92 60 130 18 39 38 81 46 95 8 14 22 41 30 60 9 19 22 46 31 60 8 14
26 48 39 75 27 54 35 69 77 132 15 23 28 45 28 50 0 10 39 74 91 150 16 23 29
44 29 48 0 17 199 300 343 489 49 64 142 175 208 248 66 73 157 176 204 230
46 53 112 120 146 150 34 29 101 89 148 134 116 110 434 372 526 434 13 8 82
56 154 105 73 50 146 99 164 110 19 11 46 30 61 43 16 12 32 22 37 22 4 0 45
23 91 51 46 28 116 69 157 90 40 22 86 48 101 59 16 11 32 20 37 20 4 0 22 7
38 16 97 52 181 94 190 94 6 0 41 16 79 35 39 19 76 35 84 35 8 0 26 9 41 19
14 10 45 24 69 30 23 7 57 20 75 31 17 10 52 24 77 30 25 6 55 18 66 25 12 8
50 21 85 30 35 9 75 23 89 31 14 8 57 23 95 33 39 11 111 31 160 46 50 14 117
33 150 41 218 54 310 75 379 85 44 6 91 15 105 20 14 6 95 19 180 30 86 12
201 27 256 34 55 7 177 14 270 16 94 1 190 5 215 10 25 4 108 5 185 3 77 -3
219 -7 315 -9z m18090 -12380 c30 -8 80 -20 110 -25 221 -41 527 -228 665
-405 116 -149 140 -186 182 -275 71 -154 78 -174 113 -355 l21 -110 -3 -3230
-3 -3230 -22 -117 c-12 -64 -28 -129 -36 -145 -8 -15 -20 -47 -26 -70 -11 -39
-56 -127 -114 -224 -55 -89 -190 -240 -279 -309 -16 -12 -28 -31 -28 -44 0
-22 54 -112 115 -190 214 -275 389 -446 575 -561 96 -60 163 -131 180 -189 17
-62 5 -87 -65 -134 l-49 -33 -110 5 c-183 8 -397 24 -466 36 -36 5 -90 15
-120 20 -30 5 -100 14 -155 20 -55 5 -135 19 -178 30 -43 11 -115 24 -161 30
-46 6 -108 19 -137 29 -30 10 -79 21 -110 24 -31 4 -86 18 -123 32 -36 14 -81
25 -99 25 -17 0 -52 9 -76 20 -24 11 -75 27 -114 35 -38 8 -80 21 -93 30 -13
8 -47 20 -76 26 -29 6 -67 19 -83 30 -17 10 -53 23 -79 29 -27 6 -61 19 -75
29 -14 10 -37 22 -51 25 -25 7 -143 61 -170 77 -8 5 -35 19 -60 31 -117 55
-320 184 -395 249 l-38 34 -2506 5 -2506 5 -80 27 c-44 15 -87 28 -95 28 -9 0
-34 9 -55 21 -22 11 -59 26 -82 33 -92 29 -323 201 -419 312 -62 72 -133 169
-154 209 -9 17 -21 39 -27 50 -27 47 -73 155 -73 169 0 9 -15 55 -32 104 l-33
87 -3 3265 c-2 2353 0 3293 8 3365 12 103 47 239 80 310 69 148 77 163 135
251 57 87 246 271 346 337 47 31 90 57 95 57 5 0 25 11 45 24 19 13 55 30 80
36 24 6 54 18 67 26 13 9 67 24 120 34 53 10 108 23 122 29 17 6 1104 10 3285
10 2869 1 3267 -1 3315 -14z"/>
<path d="M218150 21471 l-2225 -6 -45 -27 c-67 -40 -105 -85 -135 -161 -30
-76 -29 -99 7 -198 26 -74 99 -140 184 -166 56 -17 159 -18 2264 -18 2082 0
2209 1 2270 18 81 22 120 52 170 130 37 58 40 67 40 135 0 48 -6 86 -16 108
-42 89 -166 182 -249 187 -22 2 -1041 1 -2265 -2z"/>
<path d="M215937 19734 c-122 -42 -181 -112 -208 -247 -10 -47 -8 -59 14 -114
37 -92 72 -130 152 -169 l69 -34 2243 0 2243 0 53 30 c66 38 95 63 137 124 31
43 35 56 38 126 4 74 2 81 -32 142 -48 85 -91 117 -196 145 l-85 23 -2180 -1
-2180 -2 -68 -23z"/>
<path d="M215905 18011 c-11 -5 -44 -30 -74 -57 -142 -128 -139 -309 9 -435
47 -41 64 -49 120 -58 80 -13 2063 -15 2163 -2 132 17 228 115 242 247 14 124
-28 210 -135 278 l-55 35 -1125 0 c-619 0 -1134 -4 -1145 -8z"/>
<path d="M53375 19583 c-211 -3 -241 -5 -252 -20 -10 -12 -13 -80 -13 -254 0
-203 2 -240 16 -253 13 -14 52 -16 268 -16 183 0 255 3 264 12 9 9 12 81 12
263 0 257 -3 278 -39 273 -9 -2 -124 -4 -256 -5z"/>
</g>
</svg>
